HIERARCHY
ROOT joint_0
{
	OFFSET 0.000000 0.000000 0.000000
	CHANNELS 6 Xposition Yposition Zposition Zrotation Yrotation Xrotation 
	JOINT joint_1
	{
		OFFSET 4.520508 -1.939880 86.268921
		CHANNELS 3 Zrotation Yrotation Xrotation
		JOINT joint_2
		{
			OFFSET -4.459717 -0.438538 78.934082
			CHANNELS 3 Zrotation Yrotation Xrotation
			JOINT joint_3
			{
				OFFSET -5.197754 -0.781128 78.796997
				CHANNELS 3 Zrotation Yrotation Xrotation
				JOINT joint_4
				{
					OFFSET 2.952026 -3.710571 109.812988
					CHANNELS 3 Zrotation Yrotation Xrotation
					JOINT joint_5
					{
						OFFSET 24.716797 -5.488037 87.903931
						CHANNELS 3 Zrotation Yrotation Xrotation
						End Site
						{
							OFFSET 0.000000 0.000000 0.000000
						}
					}
				}
				JOINT joint_6
				{
					OFFSET -3.154419 -25.484680 60.934937
					CHANNELS 3 Zrotation Yrotation Xrotation
					JOINT joint_7
					{
						OFFSET -28.997192 -144.472229 -32.671997
						CHANNELS 3 Zrotation Yrotation Xrotation
						JOINT joint_8
						{
							OFFSET 19.867676 -18.614380 -249.897949
							CHANNELS 3 Zrotation Yrotation Xrotation
							JOINT joint_9
							{
								OFFSET 5.281982 -13.816650 -264.993042
								CHANNELS 3 Zrotation Yrotation Xrotation
								End Site
								{
									OFFSET 0.000000 0.000000 0.000000
								}
							}
						}
					}
				}
				JOINT joint_10
				{
					OFFSET 6.494995 21.336792 62.257935
					CHANNELS 3 Zrotation Yrotation Xrotation
					JOINT joint_11
					{
						OFFSET 31.106567 145.200745 -27.007935
						CHANNELS 3 Zrotation Yrotation Xrotation
						JOINT joint_12
						{
							OFFSET 29.119141 24.684326 -248.460083
							CHANNELS 3 Zrotation Yrotation Xrotation
							JOINT joint_13
							{
								OFFSET 21.220093 31.248413 -262.703979
								CHANNELS 3 Zrotation Yrotation Xrotation
								End Site
								{
									OFFSET 0.000000 0.000000 0.000000
								}
							}
						}
					}
				}
			}
		}
	}
	JOINT joint_14
	{
		OFFSET -15.458496 -88.861694 -109.593018
		CHANNELS 3 Zrotation Yrotation Xrotation
		JOINT joint_15
		{
			OFFSET -6.193359 6.837952 -506.710999
			CHANNELS 3 Zrotation Yrotation Xrotation
			JOINT joint_16
			{
				OFFSET -35.096680 13.289795 -435.677025
				CHANNELS 3 Zrotation Yrotation Xrotation
				JOINT joint_17
				{
					OFFSET 158.491211 -33.916565 -71.771002
					CHANNELS 3 Zrotation Yrotation Xrotation
					End Site
					{
						OFFSET 0.000000 0.000000 0.000000
					}
				}
			}
		}
	}
	JOINT joint_18
	{
		OFFSET 23.116943 86.574158 -110.082031
		CHANNELS 3 Zrotation Yrotation Xrotation
		JOINT joint_19
		{
			OFFSET -6.125854 -0.283569 -506.757019
			CHANNELS 3 Zrotation Yrotation Xrotation
			JOINT joint_20
			{
				OFFSET -63.240234 11.589966 -432.537994
				CHANNELS 3 Zrotation Yrotation Xrotation
				JOINT joint_21
				{
					OFFSET 156.074219 -41.487305 -73.077999
					CHANNELS 3 Zrotation Yrotation Xrotation
					End Site
					{
						OFFSET 0.000000 0.000000 0.000000
					}
				}
			}
		}
	}
}
MOTION
Frames: 8
Frame Time: 0.016667
-1917.481201 842.147461 1129.392944 4.746731 12.959365 4.482965 1.644486 10.809078 0.045672 1.248265 -2.161270 -0.217059 1.196637 1.654269 -0.028549 -0.399734 -0.833432 1.099655 0.000000 0.000000 0.000000 -1.840012 11.266738 -8.338484 -2.799853 11.550810 -1.322489 -0.931277 -54.813924 -13.526269 0.000000 0.000000 0.000000 -0.526640 7.613191 9.856303 0.564261 7.631255 18.131714 -4.473828 -42.101467 -13.519923 0.000000 0.000000 0.000000 1.447472 -17.428563 -5.573342 3.195455 37.501599 9.727013 6.731624 6.634100 3.978681 0.000000 0.000000 0.000000 -0.308377 -29.593780 -8.811920 1.691355 6.485067 -0.086136 1.251968 13.379795 4.186650 0.000000 0.000000 0.000000 
-1897.846802 843.114441 1121.010010 5.330682 11.960568 4.782379 1.909573 11.641069 0.053543 0.784250 -2.227145 -0.084272 0.596620 1.845603 -0.009734 -0.451263 -0.482124 1.274173 0.000000 0.000000 0.000000 -2.481823 12.207637 -7.955392 -1.691812 12.007899 0.045929 -0.607392 -55.270928 -15.903721 0.000000 0.000000 0.000000 -0.794667 9.254186 10.094395 -0.342143 9.763732 16.116613 -4.277511 -44.158135 -10.287199 0.000000 0.000000 0.000000 0.946538 -18.079003 -6.715031 3.451333 43.601389 11.639897 8.653765 6.536453 4.569235 0.000000 0.000000 0.000000 -1.087457 -29.088785 -10.010223 1.802501 9.477415 1.680366 1.740503 9.908085 3.446391 0.000000 0.000000 0.000000 
-1878.307617 844.583679 1112.647949 5.958936 10.352723 5.062346 2.346300 13.163418 0.171324 0.205161 -2.490848 0.029556 -0.176078 2.065374 -0.018288 -0.504255 -0.286038 1.435937 0.000000 0.000000 0.000000 -3.131199 13.037194 -7.347831 -0.424742 12.277785 1.557810 -0.186712 -54.945966 -18.530319 0.000000 0.000000 0.000000 -1.102132 10.940320 10.039017 -1.516051 11.895432 13.537663 -4.105270 -45.662634 -6.315515 0.000000 0.000000 0.000000 0.439223 -18.176808 -7.917523 3.715311 50.134588 13.456875 11.180400 6.620609 5.335864 0.000000 0.000000 0.000000 -1.816526 -28.264198 -11.633696 2.052941 14.323747 4.327086 2.638169 4.752415 2.408277 0.000000 0.000000 0.000000 
-1859.859497 845.139954 1106.218994 6.332121 9.086597 5.194508 3.021947 14.441840 0.633045 -0.239655 -2.733506 -0.035525 -0.816348 2.189047 0.012906 -0.543343 -0.064777 1.567722 0.000000 0.000000 0.000000 -3.622551 13.677014 -6.800034 0.569526 12.424562 2.958837 0.164235 -53.876652 -20.212958 0.000000 0.000000 0.000000 -1.236734 12.163922 9.766513 -2.700521 13.410758 11.213132 -4.097153 -45.936590 -3.131412 0.000000 0.000000 0.000000 -0.068202 -18.804766 -8.703270 3.949971 56.286422 14.297522 13.739579 7.216584 6.164460 0.000000 0.000000 0.000000 -2.395302 -27.664362 -12.587392 2.374329 18.654085 6.021531 3.524731 0.858083 1.694142 0.000000 0.000000 0.000000 
-1843.351807 843.971130 1102.312012 6.542864 8.767875 5.353162 3.810857 14.830205 1.246227 -0.428743 -2.759327 -0.223793 -1.143195 2.199014 0.137782 -0.563774 0.184771 1.660001 0.000000 0.000000 0.000000 -3.885775 14.049316 -6.458343 1.049213 12.418251 4.279434 0.350244 -51.809984 -20.295824 0.000000 0.000000 0.000000 -1.160907 12.718846 9.403427 -3.826986 14.141571 9.392741 -4.342732 -44.690704 -1.246846 0.000000 0.000000 0.000000 -0.718850 -20.932960 -9.010257 4.215025 62.255869 13.825125 16.345150 8.233445 7.069692 0.000000 0.000000 0.000000 -3.037532 -28.174762 -12.454021 2.681292 22.295006 5.897259 4.072224 -1.437987 1.265593 0.000000 0.000000 0.000000 
-1827.933960 841.887512 1100.338989 6.670018 8.857867 5.544344 4.557079 14.823773 1.874517 -0.472501 -2.716751 -0.451538 -1.260028 2.149036 0.295089 -0.572020 0.455721 1.723081 0.000000 0.000000 0.000000 -4.013029 14.164808 -6.168524 1.225740 12.231144 5.447302 0.456178 -48.862719 -19.346831 0.000000 0.000000 0.000000 -0.955127 12.901933 8.934228 -4.866147 14.404873 7.883789 -4.699171 -42.374851 -0.092184 0.000000 0.000000 0.000000 -1.592640 -23.819251 -8.960304 4.399186 67.949538 12.385213 18.815855 9.422115 8.017149 0.000000 0.000000 0.000000 -3.784447 -29.101691 -11.732316 2.946475 25.598881 4.857246 4.400950 -2.977346 0.949464 0.000000 0.000000 0.000000 
-1812.052368 839.908508 1100.448975 6.708558 8.835478 5.712782 5.068091 14.693569 2.297217 -0.527871 -2.709387 -0.584713 -1.357763 2.111515 0.394185 -0.567285 0.907259 1.756102 0.000000 0.000000 0.000000 -4.078927 14.128477 -5.793887 1.337304 11.958059 6.184402 0.565888 -45.779450 -18.063419 0.000000 0.000000 0.000000 -0.643503 13.039124 8.379386 -5.615109 14.461214 6.735961 -4.952932 -39.636941 0.527543 0.000000 0.000000 0.000000 -2.622265 -26.433461 -8.784140 4.410693 72.553411 10.597623 20.145499 10.277213 8.661509 0.000000 0.000000 0.000000 -4.472426 -29.177659 -11.086806 3.091328 27.494706 3.952622 4.573810 -3.814200 0.767784 0.000000 0.000000 0.000000 
-1794.902222 838.500305 1103.073975 6.538128 8.530822 5.834733 5.336167 14.346908 2.386084 -0.636295 -2.734068 -0.539259 -1.540843 2.140398 0.385887 -0.526984 1.718186 1.698753 0.000000 0.000000 0.000000 -4.107232 14.039012 -5.301857 1.448077 11.680435 6.361003 0.708723 -42.813529 -16.513437 0.000000 0.000000 0.000000 -0.151597 13.274738 7.743112 -5.958876 14.356091 6.114269 -5.027369 -36.573550 0.436501 0.000000 0.000000 0.000000 -3.679431 -28.529241 -8.640091 4.390646 76.100319 8.863372 19.764076 10.372486 8.551779 0.000000 0.000000 0.000000 -4.935361 -27.770957 -10.856570 3.123956 27.274403 3.684613 4.672843 -4.096194 0.719450 0.000000 0.000000 0.000000 
